<svg width="64" height="46" viewBox="0 0 64 46" fill="none" xmlns="http://www.w3.org/2000/svg">
<path d="M45.296 45.152C40.944 45.152 37.104 44.256 33.776 42.464C30.4907 40.6293 27.9093 38.048 26.032 34.72C24.1973 31.3493 23.28 27.3813 23.28 22.816C23.28 18.3787 24.1973 14.496 26.032 11.168C27.8667 7.84 30.512 5.25867 33.968 3.424C37.4667 1.54667 41.6907 0.607998 46.64 0.607998C48.9013 0.607998 50.992 0.863998 52.912 1.376C54.8747 1.888 56.7307 2.63466 58.48 3.616L58.736 12.576H58.096L54.512 5.92C53.9573 4.85333 53.4453 4.08533 52.976 3.616C52.5067 3.14666 51.9093 2.784 51.184 2.528C50.5013 2.31466 49.8613 2.16533 49.264 2.08C48.7093 1.952 47.9627 1.888 47.024 1.888C44.3787 1.888 42.032 2.592 39.984 4C37.9787 5.408 36.4213 7.648 35.312 10.72C34.2027 13.792 33.648 17.824 33.648 22.816C33.648 27.7653 34.16 31.7973 35.184 34.912C36.2507 38.0267 37.744 40.3093 39.664 41.76C41.584 43.168 43.8027 43.872 46.32 43.872C46.704 43.872 47.0667 43.8507 47.408 43.808C47.792 43.7227 48.1547 43.6373 48.496 43.552C49.3067 43.424 49.84 43.0827 50.096 42.528C50.352 41.9733 50.48 41.312 50.48 40.544V27.872C50.48 26.208 49.6267 25.184 47.92 24.8L44.976 24.032V23.392H63.024V24.032L62.128 24.288C60.5067 24.8 59.696 25.8667 59.696 27.488V41.376C57.4773 42.6133 55.216 43.552 52.912 44.192C50.6507 44.832 48.112 45.152 45.296 45.152Z" fill="black"/>
<path d="M0.515999 45V44.355L2.1285 43.7745C2.9885 43.4305 3.655 43.022 4.128 42.549C4.601 42.033 4.988 41.3235 5.289 40.4205L18.576 2.301H24.0585L37.152 40.6785C37.496 41.6245 37.883 42.3555 38.313 42.8715C38.743 43.3445 39.4095 43.753 40.3125 44.097L41.0865 44.355V45H24.7035V44.355L25.671 44.0325C26.574 43.6885 27.1115 43.2155 27.2835 42.6135C27.4985 41.9685 27.477 41.216 27.219 40.356L24.1875 31.068H9.8685L6.7725 40.1625C6.4715 41.1085 6.364 41.861 6.45 42.42C6.579 42.979 7.095 43.4305 7.998 43.7745L9.417 44.355V45H0.515999ZM10.32 29.778H23.8005L17.286 9.7185L10.32 29.778Z" fill="black"/>
</svg>
