<?xml version="1.0" encoding="utf-8"?>
<!-- Generator: Adobe Illustrator 23.0.1, SVG Export Plug-In . SVG Version: 6.00 Build 0)  -->
<svg version="1.1" id="Layer_1" xmlns="http://www.w3.org/2000/svg" xmlns:xlink="http://www.w3.org/1999/xlink" x="0px" y="0px"
	 viewBox="0 0 412 412" style="enable-background:new 0 0 412 412;" xml:space="preserve">
<style type="text/css">
	.st0{fill:#282828;}
	.st1{opacity:0.65;}
	.st2{fill:#303030;}
	.st3{fill:none;stroke:#303030;stroke-width:2;stroke-miterlimit:10;}
</style>
<g>
	<rect class="st0" width="412" height="412"/>
</g>
<g class="st1">
	<g>
		<g>
			<path class="st2" d="M32.5,21.4l5.9,7.6l-3.6,9l-9.6,1.3l-5.9-7.6l3.6-8.9L32.5,21.4 M33.4,19.3l-11.8,1.6L17.1,32l7.4,9.4
				l11.9-1.6l4.5-11.1L33.4,19.3L33.4,19.3z"/>
		</g>
	</g>
	<g>
		<path class="st2" d="M217.5,358c5.2,0,9.5,4.3,9.5,9.5s-4.3,9.5-9.5,9.5s-9.5-4.3-9.5-9.5S212.3,358,217.5,358 M217.5,356
			c-6.4,0-11.5,5.1-11.5,11.5s5.1,11.5,11.5,11.5s11.5-5.1,11.5-11.5S223.9,356,217.5,356L217.5,356z"/>
	</g>
	<g>
		<path class="st2" d="M346,371.7l12.9,7.4l-12.9,7.4V371.7 M344,368.2V390l18.9-10.9L344,368.2L344,368.2z"/>
	</g>
	<g>
		<path class="st3" d="M52,375.2c-0.3-1.5-0.4-3.5,0.7-5c1.9-2.8,5.4-1.5,7.3-4.2c1.8-2.5-0.2-5.1,1.7-7.9c1.4-2,3.9-2.8,5.8-3
			c0.3-0.1,3.4-1.2,4.4-4.3c0.6-1.8,0.1-3.3-0.1-4"/>
	</g>
	<g>
		<path class="st3" d="M355.5,184c-1.5,0.1-3.5-0.1-4.9-1.4c-2.5-2.3-0.7-5.5-3.1-7.9c-2.2-2.2-5.1-0.6-7.6-2.8
			c-1.8-1.7-2.1-4.3-2.1-6.1c-0.1-0.4-0.7-3.6-3.6-5c-1.7-0.8-3.3-0.6-3.9-0.5"/>
	</g>
	<g>
		<path class="st2" d="M141.3,125.2l-6.3,13.5l-8.5-12.2L141.3,125.2 M144.6,122.9l-21.7,1.9l12.5,17.8L144.6,122.9L144.6,122.9z"/>
	</g>
	<g>
		<path class="st2" d="M318.5,74c5.2,0,9.5,4.3,9.5,9.5s-4.3,9.5-9.5,9.5s-9.5-4.3-9.5-9.5S313.3,74,318.5,74 M318.5,72
			c-6.4,0-11.5,5.2-11.5,11.5S312.1,95,318.5,95S330,89.8,330,83.5S324.9,72,318.5,72L318.5,72z"/>
	</g>
	<g>
		<g>
			<path class="st2" d="M247.6,215.4l5.9,7.6l-3.6,8.9l-9.6,1.3l-5.9-7.6l3.6-8.9L247.6,215.4 M248.4,213.3l-11.9,1.6L232,226
				l7.4,9.4l11.9-1.6l4.5-11.1L248.4,213.3L248.4,213.3z"/>
		</g>
	</g>
	<g>
		<path class="st3" d="M90.3,114.9c-1.5,0.3-3.4,0.4-5.1-0.7c-2.8-1.8-1.6-5.4-4.3-7.3c-2.5-1.8-5.1,0.2-7.9-1.6
			c-2.1-1.3-2.8-3.9-3.1-5.7c-0.1-0.3-1.2-3.4-4.4-4.4c-1.8-0.5-3.3-0.1-4,0.1"/>
	</g>
	<g>
		<path class="st2" d="M153.6,275.7l14.1,4.6l-11.1,9.9L153.6,275.7 M150.9,272.7l4.4,21.3l16.2-14.5L150.9,272.7L150.9,272.7z"/>
	</g>
	<g>
		<path class="st3" d="M369.8,52.1c-0.9-1.2-1.8-3-1.5-4.9c0.5-3.3,4.2-3.6,4.9-6.9c0.6-3.1-2.3-4.6-1.8-7.9c0.4-2.4,2.4-4.1,4-5.2
			c0.3-0.3,2.6-2.5,2.2-5.8c-0.3-1.9-1.3-3.1-1.7-3.6"/>
	</g>
	<g>
		<path class="st3" d="M147,214.8c0.4-1.5,1.1-3.3,2.7-4.3c2.8-1.8,5.5,0.8,8.4-0.8c2.7-1.5,2-4.8,4.8-6.5c2.1-1.3,4.7-0.9,6.5-0.4
			c0.4,0,3.6,0.3,5.8-2.1c1.2-1.4,1.5-3,1.6-3.6"/>
	</g>
	<g>
		<g>
			<path class="st2" d="M79.5,159c0.8,0,1.5,0.7,1.5,1.5s-0.7,1.5-1.5,1.5s-1.5-0.7-1.5-1.5S78.7,159,79.5,159 M79.5,157
				c-1.9,0-3.5,1.6-3.5,3.5s1.6,3.5,3.5,3.5s3.5-1.6,3.5-3.5S81.4,157,79.5,157L79.5,157z"/>
		</g>
	</g>
	<g>
		<g>
			<path class="st2" d="M294.5,330c0.8,0,1.5,0.7,1.5,1.5s-0.7,1.5-1.5,1.5s-1.5-0.7-1.5-1.5S293.7,330,294.5,330 M294.5,328
				c-1.9,0-3.5,1.6-3.5,3.5s1.6,3.5,3.5,3.5s3.5-1.6,3.5-3.5S296.4,328,294.5,328L294.5,328z"/>
		</g>
	</g>
	<g>
		<g>
			<path class="st2" d="M282.5,162c0.8,0,1.5,0.7,1.5,1.5s-0.7,1.5-1.5,1.5s-1.5-0.7-1.5-1.5S281.7,162,282.5,162 M282.5,160
				c-1.9,0-3.5,1.6-3.5,3.5s1.6,3.5,3.5,3.5s3.5-1.6,3.5-3.5S284.4,160,282.5,160L282.5,160z"/>
		</g>
	</g>
	<g>
		<g>
			<path class="st2" d="M270.5,50c0.8,0,1.5,0.7,1.5,1.5s-0.7,1.5-1.5,1.5s-1.5-0.7-1.5-1.5S269.7,50,270.5,50 M270.5,48
				c-1.9,0-3.5,1.6-3.5,3.5s1.6,3.5,3.5,3.5s3.5-1.6,3.5-3.5S272.4,48,270.5,48L270.5,48z"/>
		</g>
	</g>
	<g>
		<g>
			<path class="st2" d="M127.5,374c0.8,0,1.5,0.7,1.5,1.5s-0.7,1.5-1.5,1.5s-1.5-0.7-1.5-1.5S126.7,374,127.5,374 M127.5,372
				c-1.9,0-3.5,1.6-3.5,3.5s1.6,3.5,3.5,3.5c1.9,0,3.5-1.6,3.5-3.5S129.4,372,127.5,372L127.5,372z"/>
		</g>
	</g>
	<g>
		<g>
			<path class="st2" d="M15.5,307c0.8,0,1.5,0.7,1.5,1.5s-0.7,1.5-1.5,1.5s-1.5-0.7-1.5-1.5S14.7,307,15.5,307 M15.5,305
				c-1.9,0-3.5,1.6-3.5,3.5s1.6,3.5,3.5,3.5s3.5-1.6,3.5-3.5S17.4,305,15.5,305L15.5,305z"/>
		</g>
	</g>
	<g>
		<g>
			<path class="st2" d="M112.5,259c0.8,0,1.5,0.7,1.5,1.5s-0.7,1.5-1.5,1.5s-1.5-0.7-1.5-1.5S111.7,259,112.5,259 M112.5,257
				c-1.9,0-3.5,1.6-3.5,3.5s1.6,3.5,3.5,3.5s3.5-1.6,3.5-3.5S114.4,257,112.5,257L112.5,257z"/>
		</g>
	</g>
	<g>
		<g>
			<path class="st2" d="M112.5,44c0.8,0,1.5,0.7,1.5,1.5s-0.7,1.5-1.5,1.5s-1.5-0.7-1.5-1.5S111.7,44,112.5,44 M112.5,42
				c-1.9,0-3.5,1.6-3.5,3.5s1.6,3.5,3.5,3.5s3.5-1.6,3.5-3.5S114.4,42,112.5,42L112.5,42z"/>
		</g>
	</g>
	<g>
		<g>
			<path class="st2" d="M187.5,107c0.8,0,1.5,0.7,1.5,1.5s-0.7,1.5-1.5,1.5s-1.5-0.7-1.5-1.5S186.7,107,187.5,107 M187.5,105
				c-1.9,0-3.5,1.6-3.5,3.5s1.6,3.5,3.5,3.5s3.5-1.6,3.5-3.5S189.4,105,187.5,105L187.5,105z"/>
		</g>
	</g>
	<g>
		<g>
			<path class="st2" d="M221.5,294c0.8,0,1.5,0.7,1.5,1.5s-0.7,1.5-1.5,1.5s-1.5-0.7-1.5-1.5S220.7,294,221.5,294 M221.5,292
				c-1.9,0-3.5,1.6-3.5,3.5s1.6,3.5,3.5,3.5s3.5-1.6,3.5-3.5S223.4,292,221.5,292L221.5,292z"/>
		</g>
	</g>
	<g>
		<g>
			<path class="st2" d="M381.5,90c0.8,0,1.5,0.7,1.5,1.5s-0.7,1.5-1.5,1.5s-1.5-0.7-1.5-1.5S380.7,90,381.5,90 M381.5,88
				c-1.9,0-3.5,1.6-3.5,3.5s1.6,3.5,3.5,3.5s3.5-1.6,3.5-3.5S383.4,88,381.5,88L381.5,88z"/>
		</g>
	</g>
	<g>
		<g>
			<path class="st2" d="M365.5,223c0.8,0,1.5,0.7,1.5,1.5s-0.7,1.5-1.5,1.5s-1.5-0.7-1.5-1.5S364.7,223,365.5,223 M365.5,221
				c-1.9,0-3.5,1.6-3.5,3.5s1.6,3.5,3.5,3.5s3.5-1.6,3.5-3.5S367.4,221,365.5,221L365.5,221z"/>
		</g>
	</g>
	<g>
		<g>
			<path class="st2" d="M79.6,303.4l5.9,7.6l-3.6,8.9l-9.6,1.3l-5.9-7.6l3.6-8.9L79.6,303.4 M80.4,301.3l-11.8,1.6L64.1,314l7.3,9.4
				l11.8-1.6l4.5-11.1L80.4,301.3L80.4,301.3z"/>
		</g>
	</g>
	<g>
		<g>
			<path class="st2" d="M-54.8,293.4c1.9,0,1.9-3,0-3S-56.7,293.4-54.8,293.4L-54.8,293.4z"/>
		</g>
	</g>
</g>
<g class="st1">
	<g>
		<path class="st2" d="M56,226v15H41v-15H56 M58,224H39v19h19V224L58,224z"/>
	</g>
</g>
<g class="st1">
	<g>
		<path class="st2" d="M194.5,37.9l10.6,10.6l-10.6,10.6l-10.6-10.6L194.5,37.9 M194.5,35.1l-13.4,13.4l13.4,13.4l13.4-13.4
			L194.5,35.1L194.5,35.1z"/>
	</g>
</g>
<g class="st1">
	<g>
		<path class="st2" d="M236,126v15h-15v-15H236 M238,124h-19v19h19V124L238,124z"/>
	</g>
</g>
<g class="st1">
	<g>
		<path class="st2" d="M327.5,259.9l10.6,10.6l-10.6,10.6l-10.6-10.6L327.5,259.9 M327.5,257.1l-13.4,13.4l13.4,13.4l13.4-13.4
			L327.5,257.1L327.5,257.1z"/>
	</g>
</g>
</svg>
